/vscmnt/brussel_pixiu_data/_data_brussel/112/vsc11236/PredSimResults/SUBJ11mtu3D/worker1.mot
version=1
nRows=4
nColumns=50
inDegrees=yes
endheader
                time	         pelvis_tilt	         pelvis_list	     pelvis_rotation	           pelvis_tx	           pelvis_ty	           pelvis_tz	       hip_flexion_r	     hip_adduction_r	      hip_rotation_r	        knee_angle_r	       ankle_angle_r	         mtp_angle_r	       hip_flexion_l	     hip_adduction_l	      hip_rotation_l	        knee_angle_l	       ankle_angle_l	         mtp_angle_l	    lumbar_extension	      lumbar_bending	     lumbar_rotation	 ercspn_r/activation	 intobl_r/activation	 extobl_r/activation	    abd_r/activation	    add_r/activation	hamstrings_r/activation	bifemsh_r/activation	glut_max_r/activation	iliopsoas_r/activation	rect_fem_r/activation	  vasti_r/activation	gastroc_r/activation	 soleus_r/activation	tib_ant_r/activation	 ercspn_l/activation	 intobl_l/activation	 extobl_l/activation	    abd_l/activation	    add_l/activation	hamstrings_l/activation	bifemsh_l/activation	glut_max_l/activation	iliopsoas_l/activation	rect_fem_l/activation	  vasti_l/activation	gastroc_l/activation	 soleus_l/activation	tib_ant_l/activation	
          0.67034415	         -3.45379042	          1.06631004	         -5.70553284	          0.73737856	          0.94111957	          0.00845675	        -13.64682540	         -3.69429014	         -1.20662750	        -11.70372382	         12.02154268	         29.17752867	         30.94480377	         -2.73435431	         -4.11251422	         -8.97422132	          3.16929380	          0.26382779	        -14.27452466	          0.97614526	          4.13756211	          0.01009326	          0.01000000	          0.01000000	          0.03210053	          0.04392618	          0.01412365	          0.24551119	          0.01747007	          0.12289893	          0.01000018	          0.01000001	          0.13565093	          0.27510703	          0.01223447	          0.03571667	          0.18286666	          0.04708906	          0.00999999	          0.21282558	          0.05103014	          0.15380986	          0.09473654	          0.06076061	          0.03205467	          0.01000000	          0.01000001	          0.00999999	          0.44058770	
          0.68375103	         -3.50940283	          1.09436768	         -5.82613600	          0.75627508	          0.93906900	          0.00691619	        -14.32415361	         -3.95149175	         -1.47986554	        -12.37894257	         11.14934559	         30.98348860	         30.66785168	         -2.60094593	         -4.27038579	        -10.32157998	          2.67305981	          0.21283448	        -13.82841043	          0.56655062	          4.40404953	          0.03262473	          0.01000000	          0.01000006	          0.02623775	          0.03590362	          0.03151618	          0.20067155	          0.01427938	          0.10045295	          0.01000001	          0.01000000	          0.11087593	          0.25139914	          0.01000000	          0.02919346	          0.14946827	          0.03848881	          0.04533466	          0.18725330	          0.05763925	          0.12571835	          0.13156492	          0.04966342	          0.02620027	          0.01000000	          0.01223450	          0.01223448	          0.48226226	
          0.69715791	         -3.54992318	          1.11558183	         -5.91882631	          0.77537203	          0.93742174	          0.00530191	        -14.81306702	         -4.20753039	         -1.76930199	        -13.40390649	         10.11370461	         32.85876962	         30.37899689	         -2.48996538	         -4.45028053	        -11.69847266	          2.07126903	          0.20514492	        -13.36698970	          0.16290959	          4.65303072	          0.04931774	          0.00999999	          0.01000000	          0.02144574	          0.02934627	          0.02576016	          0.16402133	          0.01167143	          0.12072056	          0.01000005	          0.01000001	          0.09062578	          0.22372568	          0.00999999	          0.02847561	          0.12216969	          0.03145929	          0.10098581	          0.23404797	          0.04711214	          0.10275742	          0.14549993	          0.04059299	          0.02141511	          0.01000007	          0.01000002	          0.01000000	          0.53792032	
          0.71056480	         -3.57555689	          1.12245425	         -5.98101482	          0.79437420	          0.93637595	          0.00361975	        -15.00515108	         -4.45487345	         -2.06169515	        -14.92788594	          8.90367910	         34.77161473	         30.20467790	         -2.40207580	         -4.65936038	        -13.25970632	          1.40820997	          0.15950484	        -12.92623777	         -0.22539913	          4.87944574	          0.07285574	          0.01000000	          0.01000000	          0.01752894	          0.09948486	          0.02364430	          0.13406482	          0.01000000	          0.12744351	          0.01000002	          0.01000000	          0.07407407	          0.18286488	          0.00999999	          0.02912087	          0.09985687	          0.02571363	          0.12472166	          0.29507899	          0.04470353	          0.08399002	          0.14587557	          0.03317917	          0.01750390	          0.06191504	          0.01000000	          0.00999999	          0.58580760	
